<mxfile host="app.diagrams.net" agent="Mozilla/5.0 (Windows NT 10.0; Win64; x64) AppleWebKit/537.36 (KHTML, like Gecko) Chrome/140.0.0.0 Safari/537.36" version="28.2.0">
  <diagram name="Página-1" id="2IFoNXu63tgyi3r4drWB">
    <mxGraphModel dx="872" dy="473" grid="1" gridSize="10" guides="1" tooltips="1" connect="1" arrows="1" fold="1" page="1" pageScale="1" pageWidth="827" pageHeight="1169" math="0" shadow="0">
      <root>
        <mxCell id="0" />
        <mxCell id="1" parent="0" />
        <mxCell id="wQlXM4F7lwboLoKtzEEn-1" value="" style="rounded=0;whiteSpace=wrap;html=1;" vertex="1" parent="1">
          <mxGeometry x="600" y="1020" width="560" height="380" as="geometry" />
        </mxCell>
        <mxCell id="wQlXM4F7lwboLoKtzEEn-2" value="inicia sesion" style="ellipse;whiteSpace=wrap;html=1;" vertex="1" parent="1">
          <mxGeometry x="970" y="1040" width="80" height="50" as="geometry" />
        </mxCell>
        <mxCell id="wQlXM4F7lwboLoKtzEEn-3" value="Hace una consulta" style="ellipse;whiteSpace=wrap;html=1;" vertex="1" parent="1">
          <mxGeometry x="710" y="1150" width="80" height="40" as="geometry" />
        </mxCell>
        <mxCell id="wQlXM4F7lwboLoKtzEEn-28" style="edgeStyle=orthogonalEdgeStyle;rounded=0;orthogonalLoop=1;jettySize=auto;html=1;exitX=0.75;exitY=0.1;exitDx=0;exitDy=0;exitPerimeter=0;entryX=0;entryY=0.5;entryDx=0;entryDy=0;" edge="1" parent="1" source="wQlXM4F7lwboLoKtzEEn-4" target="wQlXM4F7lwboLoKtzEEn-2">
          <mxGeometry relative="1" as="geometry">
            <Array as="points">
              <mxPoint x="540" y="1136" />
              <mxPoint x="540" y="1065" />
            </Array>
          </mxGeometry>
        </mxCell>
        <mxCell id="wQlXM4F7lwboLoKtzEEn-4" value="usuario" style="shape=umlActor;verticalLabelPosition=bottom;verticalAlign=top;html=1;outlineConnect=0;" vertex="1" parent="1">
          <mxGeometry x="530" y="1130" width="30" height="60" as="geometry" />
        </mxCell>
        <mxCell id="wQlXM4F7lwboLoKtzEEn-23" style="edgeStyle=orthogonalEdgeStyle;rounded=0;orthogonalLoop=1;jettySize=auto;html=1;exitX=1;exitY=1;exitDx=0;exitDy=0;exitPerimeter=0;entryX=1;entryY=0.5;entryDx=0;entryDy=0;" edge="1" parent="1" source="wQlXM4F7lwboLoKtzEEn-5" target="wQlXM4F7lwboLoKtzEEn-20">
          <mxGeometry relative="1" as="geometry" />
        </mxCell>
        <mxCell id="wQlXM4F7lwboLoKtzEEn-24" style="edgeStyle=orthogonalEdgeStyle;rounded=0;orthogonalLoop=1;jettySize=auto;html=1;exitX=0.5;exitY=0.5;exitDx=0;exitDy=0;exitPerimeter=0;" edge="1" parent="1" source="wQlXM4F7lwboLoKtzEEn-5" target="wQlXM4F7lwboLoKtzEEn-19">
          <mxGeometry relative="1" as="geometry" />
        </mxCell>
        <mxCell id="wQlXM4F7lwboLoKtzEEn-5" value="Administrador" style="shape=umlActor;verticalLabelPosition=bottom;verticalAlign=top;html=1;outlineConnect=0;" vertex="1" parent="1">
          <mxGeometry x="1211" y="1130" width="30" height="60" as="geometry" />
        </mxCell>
        <mxCell id="wQlXM4F7lwboLoKtzEEn-6" value="consulta mapa de la escuela" style="ellipse;whiteSpace=wrap;html=1;" vertex="1" parent="1">
          <mxGeometry x="640" y="1240" width="80" height="50" as="geometry" />
        </mxCell>
        <mxCell id="wQlXM4F7lwboLoKtzEEn-7" value="preguntas frecuentes" style="ellipse;whiteSpace=wrap;html=1;" vertex="1" parent="1">
          <mxGeometry x="650" y="1330" width="80" height="40" as="geometry" />
        </mxCell>
        <mxCell id="wQlXM4F7lwboLoKtzEEn-8" value="enseña a&amp;nbsp;&lt;div&gt;chatbot&lt;/div&gt;" style="ellipse;whiteSpace=wrap;html=1;" vertex="1" parent="1">
          <mxGeometry x="1050" y="1300" width="80" height="40" as="geometry" />
        </mxCell>
        <mxCell id="wQlXM4F7lwboLoKtzEEn-9" value="consulta pregunta sin respuesta" style="ellipse;whiteSpace=wrap;html=1;" vertex="1" parent="1">
          <mxGeometry x="940" y="1220" width="80" height="50" as="geometry" />
        </mxCell>
        <mxCell id="wQlXM4F7lwboLoKtzEEn-10" value="" style="edgeStyle=none;orthogonalLoop=1;jettySize=auto;html=1;rounded=0;entryX=1;entryY=0.5;entryDx=0;entryDy=0;exitX=0.5;exitY=0;exitDx=0;exitDy=0;exitPerimeter=0;" edge="1" parent="1" source="wQlXM4F7lwboLoKtzEEn-5" target="wQlXM4F7lwboLoKtzEEn-2">
          <mxGeometry width="100" relative="1" as="geometry">
            <mxPoint x="870" y="1250" as="sourcePoint" />
            <mxPoint x="970" y="1250" as="targetPoint" />
            <Array as="points" />
          </mxGeometry>
        </mxCell>
        <mxCell id="wQlXM4F7lwboLoKtzEEn-11" value="" style="edgeStyle=none;orthogonalLoop=1;jettySize=auto;html=1;rounded=0;exitX=0;exitY=1;exitDx=0;exitDy=0;exitPerimeter=0;entryX=1;entryY=0;entryDx=0;entryDy=0;" edge="1" parent="1" source="wQlXM4F7lwboLoKtzEEn-5" target="wQlXM4F7lwboLoKtzEEn-9">
          <mxGeometry width="100" relative="1" as="geometry">
            <mxPoint x="870" y="1250" as="sourcePoint" />
            <mxPoint x="970" y="1250" as="targetPoint" />
            <Array as="points" />
          </mxGeometry>
        </mxCell>
        <mxCell id="wQlXM4F7lwboLoKtzEEn-12" value="" style="edgeStyle=none;orthogonalLoop=1;jettySize=auto;html=1;rounded=0;exitX=0.938;exitY=0.86;exitDx=0;exitDy=0;exitPerimeter=0;entryX=0;entryY=0;entryDx=0;entryDy=0;" edge="1" parent="1" source="wQlXM4F7lwboLoKtzEEn-9" target="wQlXM4F7lwboLoKtzEEn-8">
          <mxGeometry width="100" relative="1" as="geometry">
            <mxPoint x="870" y="1250" as="sourcePoint" />
            <mxPoint x="970" y="1250" as="targetPoint" />
            <Array as="points" />
          </mxGeometry>
        </mxCell>
        <mxCell id="wQlXM4F7lwboLoKtzEEn-13" value="" style="edgeStyle=none;orthogonalLoop=1;jettySize=auto;html=1;rounded=0;exitX=1;exitY=1;exitDx=0;exitDy=0;exitPerimeter=0;entryX=0;entryY=0;entryDx=0;entryDy=0;" edge="1" parent="1" source="wQlXM4F7lwboLoKtzEEn-4" target="wQlXM4F7lwboLoKtzEEn-7">
          <mxGeometry width="100" relative="1" as="geometry">
            <mxPoint x="870" y="1250" as="sourcePoint" />
            <mxPoint x="970" y="1250" as="targetPoint" />
            <Array as="points" />
          </mxGeometry>
        </mxCell>
        <mxCell id="wQlXM4F7lwboLoKtzEEn-14" value="" style="edgeStyle=none;orthogonalLoop=1;jettySize=auto;html=1;rounded=0;exitX=0.5;exitY=0.5;exitDx=0;exitDy=0;exitPerimeter=0;entryX=0;entryY=0;entryDx=0;entryDy=0;" edge="1" parent="1" source="wQlXM4F7lwboLoKtzEEn-4" target="wQlXM4F7lwboLoKtzEEn-6">
          <mxGeometry width="100" relative="1" as="geometry">
            <mxPoint x="870" y="1250" as="sourcePoint" />
            <mxPoint x="970" y="1250" as="targetPoint" />
            <Array as="points" />
          </mxGeometry>
        </mxCell>
        <mxCell id="wQlXM4F7lwboLoKtzEEn-15" value="" style="edgeStyle=none;orthogonalLoop=1;jettySize=auto;html=1;rounded=0;exitX=0.5;exitY=0;exitDx=0;exitDy=0;entryX=0.5;entryY=0;entryDx=0;entryDy=0;entryPerimeter=0;" edge="1" parent="1" source="wQlXM4F7lwboLoKtzEEn-3" target="wQlXM4F7lwboLoKtzEEn-4">
          <mxGeometry width="100" relative="1" as="geometry">
            <mxPoint x="870" y="1250" as="sourcePoint" />
            <mxPoint x="970" y="1250" as="targetPoint" />
            <Array as="points">
              <mxPoint x="710" y="1120" />
              <mxPoint x="650" y="1110" />
              <mxPoint x="590" y="1110" />
            </Array>
          </mxGeometry>
        </mxCell>
        <mxCell id="wQlXM4F7lwboLoKtzEEn-16" value="respuesta" style="text;html=1;align=center;verticalAlign=middle;resizable=0;points=[];autosize=1;strokeColor=none;fillColor=none;" vertex="1" parent="1">
          <mxGeometry x="600" y="1080" width="80" height="30" as="geometry" />
        </mxCell>
        <mxCell id="wQlXM4F7lwboLoKtzEEn-17" value="" style="edgeStyle=none;orthogonalLoop=1;jettySize=auto;html=1;rounded=0;exitX=1;exitY=0.3333333333333333;exitDx=0;exitDy=0;exitPerimeter=0;entryX=0;entryY=0.5;entryDx=0;entryDy=0;" edge="1" parent="1" source="wQlXM4F7lwboLoKtzEEn-4" target="wQlXM4F7lwboLoKtzEEn-3">
          <mxGeometry width="100" relative="1" as="geometry">
            <mxPoint x="870" y="1250" as="sourcePoint" />
            <mxPoint x="970" y="1250" as="targetPoint" />
            <Array as="points" />
          </mxGeometry>
        </mxCell>
        <mxCell id="wQlXM4F7lwboLoKtzEEn-18" value="" style="edgeStyle=none;orthogonalLoop=1;jettySize=auto;html=1;rounded=0;exitX=1;exitY=1;exitDx=0;exitDy=0;exitPerimeter=0;entryX=1;entryY=0;entryDx=0;entryDy=0;" edge="1" parent="1" source="wQlXM4F7lwboLoKtzEEn-5" target="wQlXM4F7lwboLoKtzEEn-8">
          <mxGeometry width="100" relative="1" as="geometry">
            <mxPoint x="870" y="1250" as="sourcePoint" />
            <mxPoint x="970" y="1250" as="targetPoint" />
            <Array as="points" />
          </mxGeometry>
        </mxCell>
        <mxCell id="wQlXM4F7lwboLoKtzEEn-19" value="modifica consulta" style="ellipse;whiteSpace=wrap;html=1;" vertex="1" parent="1">
          <mxGeometry x="960" y="1160" width="80" height="40" as="geometry" />
        </mxCell>
        <mxCell id="wQlXM4F7lwboLoKtzEEn-20" value="preguntas frecuentes" style="ellipse;whiteSpace=wrap;html=1;" vertex="1" parent="1">
          <mxGeometry x="960" y="1350" width="80" height="40" as="geometry" />
        </mxCell>
        <mxCell id="wQlXM4F7lwboLoKtzEEn-27" value="cierra sesion" style="ellipse;whiteSpace=wrap;html=1;" vertex="1" parent="1">
          <mxGeometry x="840" y="1100" width="80" height="50" as="geometry" />
        </mxCell>
        <mxCell id="wQlXM4F7lwboLoKtzEEn-33" value="" style="edgeStyle=none;orthogonalLoop=1;jettySize=auto;html=1;rounded=0;exitX=0;exitY=1;exitDx=0;exitDy=0;entryX=1;entryY=0.5;entryDx=0;entryDy=0;" edge="1" parent="1" source="wQlXM4F7lwboLoKtzEEn-2" target="wQlXM4F7lwboLoKtzEEn-27">
          <mxGeometry width="100" relative="1" as="geometry">
            <mxPoint x="800" y="1250" as="sourcePoint" />
            <mxPoint x="900" y="1250" as="targetPoint" />
            <Array as="points" />
          </mxGeometry>
        </mxCell>
      </root>
    </mxGraphModel>
  </diagram>
</mxfile>
